<svg xmlns="http://www.w3.org/2000/svg" width="997.9" height="478.9"><style>.st1{fill:#000348}.st2{fill:#00003b}.st3{fill:#001760}.st4{fill:#00002c}.st5{fill:#032573}.st6{fill:#001d69}</style><path d="M502 0h57l3 2c14 3 28 9 43 11l29 5c17 4 31 11 43 22 16 15 24 33 29 53s11 39 18 59l14 33 11 30 13 40c4 10 10 18 19 25 12 9 26 14 41 19l21 9a437 437 0 0186 45c11 8 20 17 29 27 10 10 17 21 23 33l14 34 2 10 1 2v20h-30c-2-2-4-5-4-8-7-18-14-36-26-52-7-9-12-18-21-25l-31-22c-17-11-36-17-54-23l-12-2c-9-2-18-4-27-4-8-1-17-3-25-2-18 2-35 3-51 12-8 4-14 11-19 19-9 15-16 32-21 49l-13 44c-2 5-2 10-7 14h-39c-3-3-1-7 0-9 5-8 6-17 7-26 1-8 4-16 4-24-2-20-12-34-31-40-23-8-47-15-70-26l-41-20-39-20c-15-6-30-11-46-13-14-2-27-2-41 3-14 4-26 11-38 20-5 4-10 10-15 13-14 9-25 23-37 33-16 14-33 24-49 37l-31 25c-11 10-23 19-36 27l-18 11c-6 4-13 6-21 7l-3 2H0V333c3-4 9-6 13-9 10-6 16-15 19-25l4-24c4-18 2-36 10-53l14-25c5-9 11-17 13-26a67 67 0 00-18-62c-5-5-11-9-18-10-9-1-15 3-20 9-4 5-6 11-9 16l-4 6c-2 1-3 1-4-1V0h68l5 8 49 98c7 15 12 31 16 47l5 21v15c5 11 3 23 2 34s-2 23-5 34c-1 6 0 13-3 19-2 3-1 6-1 9 0 5 0 11-2 16v2c2 8 1 17 4 26 3 8 11 14 20 14 12 0 22-3 33-6 12-4 22-9 33-15s23-11 34-18l24-15 29-17c10-5 21-11 32-14 9-2 17-5 27-4h20c17-1 32 5 48 10 14 6 27 13 39 21 19 12 37 23 57 32 8 4 18 6 27 9s19 2 28 5h10c6-2 12-1 18-2 19-4 39-7 53-23 10-11 16-24 20-38 5-14 9-28 8-43 0-18-5-35-12-51-6-18-15-35-23-52a88 88 0 00-42-44l-29-11c-21-8-42-16-59-30-4-3-9-5-11-11l-1-3c-7-5-11-12-18-17-1-1-4-3-1-6z" fill="#000d53"/><path class="st1" d="M524 26l17 14c13 9 28 15 42 20l43 17c11 6 21 14 27 25 10 16 19 32 27 49 7 14 11 30 16 45 4 11 5 23 4 35a134 134 0 01-27 76c-8 11-21 15-34 19-9 3-19 6-30 6-4-1-9 2-14 1-18 0-36-3-53-10l-39-19-45-26-34-16c-10-3-21-6-32-6h-18c-17 0-34 4-49 12l-47 26-35 21c-13 7-26 14-40 19-14 7-29 13-46 12-9-1-18-6-21-15-2-4-2-8-3-13l-2-10v-7l2-21 4-22 3-24v-6c5-10 3-21 2-32-1-15-5-30-8-45-5-26-17-49-28-72L69 6l-1-6h93c2 2 1 4 0 5-4 8-10 15-12 24-1 8-5 15-2 24v2c1 12 5 23 7 34l10 34 16 49c4 13 7 27 12 39 3 10 7 21 14 30 3 5 7 8 12 10 12 5 23 4 34 2 13-3 25-9 37-14 16-8 33-15 50-20 12-4 24-6 37-6h41a114 114 0 0180 34c13 11 26 22 41 30 7 4 15 6 23 8l13 3a74 74 0 0067-98c-7-20-18-37-35-50-9-7-17-12-27-17-15-7-29-15-41-26-18-15-37-31-52-50-12-15-27-27-40-42-2-2-2-3 0-5h50c7 4 12 11 19 17l9 9z"/><path class="st2" d="M446 0l9 10 19 20c16 16 30 33 46 48 14 12 28 25 45 34l35 20c22 15 37 35 45 60 4 13 4 25 2 37-1 10-6 20-12 29a74 74 0 01-62 33c-5 0-10-2-14-3-17-5-33-13-46-25-13-11-26-22-40-31-11-8-25-11-39-14-22-4-45-2-68-2-11 1-23 4-34 8l-54 23-33 10c-7 2-14 0-21-1-12-2-20-10-25-20l-15-41-13-41-11-37-3-10c-4-13-9-27-11-40-4-20-3-39 9-56l6-11h68c2 2 1 3 0 5l-8 7c-10 7-16 16-22 26-4 8-7 15-8 24-4 19 1 38 6 56 4 17 10 33 18 49 4 8 9 15 15 21 8 8 18 11 28 13h4c16-3 30-8 44-14l33-13c12-4 23-6 35-8l25-5c14-4 28-6 41-13 9-5 16-13 21-22 3-7 3-13 1-20-4-17-14-31-25-45l-28-32c-6-7-13-14-21-19-3-1-4-3-6-5s-2-3 0-5h64z"/><path class="st3" d="M113 479l13-7 23-12 26-17 14-13 45-35c22-16 42-33 62-52 17-15 34-31 55-38a116 116 0 0173-2c10 2 19 6 28 10l65 34 52 20 33 11c19 8 29 22 29 43 0 8-2 17-4 26-2 11-6 21-9 32h-54c-3-2-3-4-2-7l5-16c2-11 0-21-6-30-5-10-14-17-23-22l-45-27c-15-9-31-16-48-21-16-5-34-6-50 1-7 3-13 8-17 15-8 12-11 26-13 40-2 11-4 21-8 32l-7 20c-2 6-4 12-9 15H113z"/><path class="st4" d="M383 0l6 8c13 9 24 19 33 32l7 7c12 13 23 26 30 41 4 9 8 18 7 28 0 7-3 13-7 19-7 9-17 17-29 20l-42 10c-19 5-40 8-59 16l-51 19c-15 5-29 4-42-4-10-7-17-17-22-28-12-22-20-45-24-70-3-14-5-28-1-42 3-11 7-21 14-29l27-27h153z"/><path class="st5" d="M788 0h195c6 4 9 11 12 17l3 3v179c-3 3-7 2-10 1-8-3-16-4-25-6l-21-4c-6-1-13 1-18-3h-1c-9 1-17-2-26-3l-19-3-20-6c-9-4-19-8-27-15l-16-15c-1-2-3-3-3-5-3-8-8-14-10-22-3-11-5-21-5-33V58c1-4-3-8-2-12 0-10-2-19-5-28l-3-10c-1-3-2-6 1-8z"/><path class="st3" d="M997 458l-4-8-19-44c-5-9-12-17-19-25-21-24-47-42-76-55l-50-20c-14-6-28-11-41-18-14-8-25-19-29-34l-17-50-13-33-20-59c-6-17-9-34-18-49a82 82 0 00-43-38c-8-3-17-4-26-6L575 8c-6-1-10-5-15-8h160l5 5c7 13 13 26 17 39s7 26 7 39c0 3 0 7 2 10l1 5c1 26 10 49 23 71l16 25c8 8 13 18 22 25 10 8 20 17 31 23l28 15c17 8 36 14 54 21 19 8 40 12 59 23 5 3 10 5 13 11v145l-1 1z"/><path class="st6" d="M998 312l-24-13-37-13a2262 2262 0 01-80-34c-12-6-23-14-33-21l-17-14c-11-14-23-27-32-42-2-6-6-11-9-17l-14-35-2-12-4-30c-1-15-3-31-10-45L720 0h62c4 2 4 5 5 9 4 12 6 26 8 39 3 18 1 35 2 52l4 15c2 8 6 15 9 23 3 6 9 10 14 16a102 102 0 0051 27c5 0 12 0 17 3l5 1 12 1c11 0 21 4 31 5 7 0 14 0 22 3l15 3c8 1 15 3 21 8v107zM341 479l13-35 7-25c4-17 5-34 14-48 8-12 19-21 35-21l32 2a510 510 0 0190 44c12 7 24 16 32 29 9 13 7 27 3 41l-3 13H341z"/><path class="st1" d="M657 479l10-35 10-30c6-15 12-31 20-45 8-13 20-22 36-26 16-3 32-5 48-4 11 0 22 3 33 4a183 183 0 0169 25 132 132 0 0150 42c7 9 14 18 19 28 7 13 11 27 16 41h-31c-3-2-4-5-5-8a147 147 0 00-55-67c-10-8-21-12-32-16-17-6-34-10-52-8-20 1-38 6-54 19-12 9-21 21-28 34a325 325 0 00-20 46h-34z"/><path class="st3" d="M0 130l7-9 8-14c4-6 10-10 17-10 6-1 14 1 19 5 21 16 29 38 26 64-1 7-4 15-8 22-9 15-20 30-24 48l-3 13-3 33c-3 21-11 38-31 49l-8 3V130z"/><path class="st2" d="M691 479c1-5 1-10 3-14 8-19 16-38 29-54 13-17 30-26 49-31 15-4 31-4 47-2 19 3 36 10 53 19l16 11 12 10 2 2c12 15 25 29 32 47l3 12h-37l-8-11c-6-9-13-18-22-25-9-8-21-13-32-19l-11-3c-15-4-30-3-46 2-10 3-17 9-25 15-7 4-11 11-14 18l-8 15-6 8h-37z"/><path class="st4" d="M728 479l13-28c6-12 16-19 26-25 7-4 15-6 22-8 6-2 12-3 18-2 14 1 27 3 40 9 12 6 24 14 33 24l19 26 1 4H728z"/><path class="st5" d="M998 205l-26-7-16-4-20-2-28-4c-12-1-24-3-35-6-18-4-34-11-48-24a92 92 0 01-30-79c1-16-2-31-5-46-1-11-5-22-8-33h6l4 15 3 13c5 22 3 45 5 68 0 10 5 20 8 30l3 6c2 9 10 15 16 21 15 15 34 22 54 26 13 3 26 4 38 5h4l32 5 32 7 11 3v6z"/><path class="st6" d="M998 20l-7-5-8-15h15v20z"/><path d="M524 26l-5-3-23-23h6l4 6 16 16 2 4z" fill="#000e54"/><path d="M997 458l1-1v2l-1-1z" fill="#00165f"/><path d="M301 31c18-1 34 9 43 26 6 11 6 24 1 35-5 13-15 20-26 27-9 7-18 12-29 16-16 6-34 4-44-12-6-9-8-19-11-29v-3c2-20 9-38 28-49 11-7 22-12 38-11z" fill="#000019"/><path d="M926 121c-13-1-24-4-35-10-6-3-9-9-11-15s1-12 7-15c8-5 17-10 28-5l8 2c11 2 19 7 28 13l1 2c11 12 8 19-6 24l-20 4z" fill="#0b2c7e"/></svg>